<?xml version="1.0" encoding="UTF-8" standalone="no"?>
<svg
   xmlns:dc="http://purl.org/dc/elements/1.1/"
   xmlns:cc="http://creativecommons.org/ns#"
   xmlns:rdf="http://www.w3.org/1999/02/22-rdf-syntax-ns#"
   xmlns:svg="http://www.w3.org/2000/svg"
   xmlns="http://www.w3.org/2000/svg"
   xmlns:sodipodi="http://sodipodi.sourceforge.net/DTD/sodipodi-0.dtd"
   xmlns:inkscape="http://www.inkscape.org/namespaces/inkscape"
   version="1.1"
   viewBox="-10 0 75.590553 75.590553"
   id="svg6"
   sodipodi:docname="ocarina.svg"
   width="75.590553"
   height="75.590553"
   inkscape:version="1.0.1 (3bc2e813f5, 2020-09-07)"
   inkscape:export-filename="C:\Users\lucaf\Documents\MuseScore3\Plugin\repo\.miscellanea\ocarina_1.png"
   inkscape:export-xdpi="96"
   inkscape:export-ydpi="96">
  <metadata
     id="metadata12">
    <rdf:RDF>
      <cc:Work
         rdf:about="">
        <dc:format>image/svg+xml</dc:format>
        <dc:type
           rdf:resource="http://purl.org/dc/dcmitype/StillImage" />
      </cc:Work>
    </rdf:RDF>
  </metadata>
  <defs
     id="defs10" />
  <sodipodi:namedview
     pagecolor="#ffffff"
     bordercolor="#666666"
     borderopacity="1"
     objecttolerance="10"
     gridtolerance="10"
     guidetolerance="10"
     inkscape:pageopacity="0"
     inkscape:pageshadow="2"
     inkscape:window-width="1278"
     inkscape:window-height="664"
     id="namedview8"
     showgrid="false"
     inkscape:zoom="7.5685798"
     inkscape:cx="62.191501"
     inkscape:cy="35.73635"
     inkscape:window-x="-7"
     inkscape:window-y="0"
     inkscape:window-maximized="0"
     inkscape:current-layer="svg6" />
  <rect
     style="fill:#ffffff;fill-opacity:1;stroke:#000000;stroke-width:2.90733;stroke-opacity:0.976471;paint-order:markers stroke fill;stop-color:#000000;opacity:0.999"
     id="rect886"
     width="72.68322"
     height="72.68322"
     x="-8.5463352"
     y="1.453665" />
  <g
     id="g911"
     transform="translate(3.7795272,5.7161231)">
    <g
       id="g884"
       transform="matrix(0.09113395,0,0,0.09113395,-9.0886605,0)">
      <path
         d="m 725.5,0 q -2,0 -4,1 V 0 l -1,1 q -88,19 -178,51 -12,3 -46,18 -28,12 -71,31 -90,41 -110,52 v 1 q -159,75 -225,128 -45,32 -67,69 -27,40 -19,119 1,9 -4,29 -3,15 -9,34 -3,9 0,16 3,6 9,10 l 14,5 h 1 q 19,0 34,4 3,1 15.5,5 12.5,4 18.5,6 30,9 51,11 6,0 22.5,2.5 16.5,2.5 25.5,3 9,0.5 26.5,-3 17.5,-3.5 34.5,-12.5 24,-12 38,-3 3,2 5,4.5 2,2.5 3,3.5 v 2 l 1,1 41,74 q 11,22 25,32 16,12 34,9 6,-1 13,-5 h 1 q 14,-8 30,-17 17,-10 20,-25 5,-20 -10,-49 -13,-25 -27.5,-50 -14.5,-25 -16.5,-27 v 0 q -10,-18 3,-51 7,-17 19,-36 v 0 q 11,-20 65,-87 50,-62 106,-127 31,-36 66.5,-87 35.5,-51 55.5,-84 l 19,-33 1,-1 1,-14 q -1,-9 -9,-10 z"
         id="path2" />
      <path
         d="m 725.5,11 v 1 q 0,2 -1,7 -71,123 -140,202 -56,65 -106,127 -54,67 -66,89 -12,19 -20,38 -15,38 -2,60 v 1 q 2,3 16.5,27.5 14.5,24.5 26.5,48.5 14,26 10,41 -2,11 -15,18 -15,9 -30,17 -6,3 -10,4 -13,2 -25,-7 -12,-9 -22,-28 v -1 l -41,-73 v -1 q -4,-9 -13,-15 -19,-12 -49,3 -17,8 -32.5,11.5 -15.5,3.5 -23.5,3 -8,-0.5 -24,-3 -16,-2.5 -23,-3.5 -20,-2 -48,-10 -7,-2 -19,-6 -12,-4 -16,-5 -17,-4 -36,-5 -6,0 -10,-3 -3,-2 -4,-5 -2,-3 0,-8 6,-19 10,-35 5,-21 4,-33 -8,-74 17,-111 v 0 q 9,-15 25,-31.5 16,-16.5 27,-25.5 l 12,-9 v 0 q 65,-52 223,-127 l 1,-1 q 18,-11 109,-52 41,-18 71,-31 34,-14 45,-17 v 0 q 40,-14 84.5,-27 44.5,-13 68.5,-19 l 25,-5 z"
         id="path840"
         style="fill:#ffffff;fill-opacity:1" />
    </g>
    <path
       d="m -2.1169131,39.643269 q -1.3670093,0 -2.3694828,0.956907 -1.0024734,0.956907 -1.0024734,2.323915 0,1.36701 1.0024734,2.323916 1.0024735,0.956907 2.3694828,0.956907 1.36700925,0 2.32391571,-0.956907 0.95690649,-0.956906 0.95690649,-2.323916 0,-1.367008 -0.95690649,-2.323915 -0.95690646,-0.956907 -2.32391571,-0.956907 z"
       id="path870"
       style="stroke-width:0.0911338" />
    <path
       d="m 5.4472049,33.355026 q -1.3670093,0 -2.3239157,1.002474 -0.9569066,1.002473 -0.9569066,2.323916 0,1.321442 0.9569066,2.323916 0.9569064,1.002473 2.3239157,1.002473 1.3670093,0 2.3239158,-1.002473 0.9569067,-1.002474 0.9569067,-2.323916 0,-1.321443 -0.9569067,-2.323916 -0.9569065,-1.002474 -2.3239158,-1.002474 z"
       id="path866"
       style="stroke-width:0.0911338" />
    <path
       d="m 24.676469,29.891937 q -1.36701,0 -2.369483,1.002473 -1.002474,1.002474 -1.002474,2.323915 0,1.321443 1.002474,2.27835 1.002473,0.956906 2.369483,0.956906 1.367009,0 2.323916,-0.956906 0.956907,-0.956907 0.956907,-2.27835 0,-1.321441 -0.956907,-2.323915 -0.956907,-1.002473 -2.323916,-1.002473 z"
       id="path862"
       style="stroke-width:0.0911338" />
    <path
       d="m 12.373385,26.97565 q -1.367009,0 -2.323916,0.956907 -0.9569065,0.956906 -0.9569065,2.323915 0,1.367009 0.9569065,2.323916 0.956907,0.956907 2.323916,0.956907 1.36701,0 2.323916,-0.956907 0.956906,-0.956907 0.956906,-2.323916 0,-1.367009 -0.956906,-2.323915 -0.956906,-0.956907 -2.323916,-0.956907 z"
       id="path858"
       style="stroke-width:0.0911338" />
    <path
       d="m 30.23564,21.507613 q -1.36701,0 -2.323916,0.956906 -0.956906,0.956907 -0.956906,2.323916 0,1.367009 0.956906,2.323916 0.956906,0.956906 2.323916,0.956906 1.367009,0 2.323916,-0.956906 0.956906,-0.956907 0.956906,-2.323916 0,-1.367009 -0.956906,-2.323916 -0.956907,-0.956906 -2.323916,-0.956906 z"
       id="path854"
       style="stroke-width:0.0911338" />
    <path
       d="m 17.704721,19.13813 q -1.321442,0 -2.323915,0.956906 -1.002474,0.956907 -1.002474,2.323916 0,1.36701 1.002474,2.323916 1.002473,0.956906 2.323915,0.956906 1.321443,0 2.323916,-0.956906 1.002474,-0.956906 1.002474,-2.323916 0,-1.367009 -1.002474,-2.323916 -1.002473,-0.956906 -2.323916,-0.956906 z"
       id="path850"
       style="stroke-width:0.0911338" />
    <path
       d="m 37.070686,14.034629 q -1.367009,0 -2.369482,0.956906 -1.002474,0.956906 -1.002474,2.323916 0,1.367009 1.002474,2.323916 1.002473,0.956906 2.369482,0.956906 1.36701,0 2.323916,-0.956906 0.956907,-0.956907 0.956907,-2.323916 0,-1.36701 -0.956907,-2.323916 -0.956906,-0.956906 -2.323916,-0.956906 z"
       id="path846"
       style="stroke-width:0.0911338" />
    <path
       d="m 44.498103,8.2020557 q -1.321442,0 -2.323916,0.9569065 -1.002473,0.9569068 -1.002473,2.3239158 0,1.367009 1.002473,2.323916 1.002474,0.956906 2.323916,0.956906 1.321443,0 2.323917,-0.956906 1.002473,-0.956907 1.002473,-2.323916 0,-1.367009 -1.002473,-2.3239158 -1.002474,-0.9569065 -2.323917,-0.9569065 z"
       id="path842"
       style="stroke-width:0.0911338" />
    <path
       d="m 35.065739,43.835431 q -1.549277,0 -2.688451,1.093607 -1.139175,1.093608 -1.139175,2.688453 0,1.594844 1.139175,2.688451 1.139174,1.093607 2.688451,1.093607 1.549278,0 2.642885,-1.093607 1.093608,-1.093607 1.093608,-2.688451 0,-1.594845 -1.093608,-2.688453 -1.093607,-1.093607 -2.642885,-1.093607 z"
       id="path874"
       style="stroke-width:0.0911338" />
    <path
       d="m 12.373385,56.594184 q -1.549277,0 -2.688451,1.139174 -1.1391751,1.139176 -1.1391751,2.688453 0,1.549277 1.1391751,2.642884 1.139174,1.093607 2.688451,1.093607 1.549277,0 2.642885,-1.093607 1.093607,-1.093607 1.093607,-2.642884 0,-1.549277 -1.093607,-2.688453 -1.093608,-1.139174 -2.642885,-1.139174 z"
       id="path878"
       style="stroke-width:0.0911338" />
    <path
       d="m 12.418952,57.687792 q 1.139174,0 1.913813,0.774639 0.774639,0.774638 0.774639,1.913813 0,1.139174 -0.774639,1.959379 -0.774639,0.820206 -1.913813,0.820206 -1.139174,0 -1.95938,-0.820206 -0.8202049,-0.820205 -0.8202049,-1.959379 0,-1.139175 0.8202049,-1.913813 0.820206,-0.774639 1.95938,-0.774639 z"
       id="path880"
       style="fill:#000000;fill-opacity:1;stroke-width:0.0911338;opacity:0.99800004" />
    <path
       d="m 35.020172,44.837904 q 1.139175,0 1.95938,0.820206 0.820206,0.820205 0.820206,1.959381 0,1.139174 -0.820206,1.913812 -0.820205,0.774639 -1.95938,0.774639 -1.139174,0 -1.913812,-0.774639 -0.774639,-0.774638 -0.774639,-1.913812 0,-1.139176 0.774639,-1.959381 0.774638,-0.820206 1.913812,-0.820206 z"
       id="path876"
       style="fill:#000000;fill-opacity:1;stroke-width:0.0911338" />
    <path
       d="m -2.1624801,40.645743 q 0.9569065,0 1.59484416,0.683504 0.63793769,0.683505 0.63793769,1.594844 0,0.91134 -0.63793769,1.594844 -0.63793766,0.683506 -1.59484416,0.683506 -0.9569065,0 -1.5948441,-0.683506 -0.6379377,-0.683504 -0.6379377,-1.594844 0,-0.911339 0.6379377,-1.594844 0.6379376,-0.683504 1.5948441,-0.683504 z"
       id="path872"
       style="fill:#000000;fill-opacity:1;stroke-width:0.0911338" />
    <path
       d="m 5.4472049,34.448634 q 0.9113395,0 1.5948442,0.637938 0.6835046,0.637937 0.6835046,1.594844 0,0.956906 -0.6835046,1.594844 -0.6835047,0.637937 -1.5948442,0.637937 -0.9113396,0 -1.5948442,-0.637937 -0.6835046,-0.637938 -0.6835046,-1.594844 0,-0.956907 0.6835046,-1.594844 0.6835046,-0.637938 1.5948442,-0.637938 z"
       id="path868"
       style="fill:#000000;fill-opacity:1;stroke-width:0.0911338" />
    <path
       d="m 24.630902,30.985544 q 0.956906,0 1.594844,0.637937 0.637937,0.637938 0.637937,1.594844 0,0.956907 -0.637937,1.594844 -0.637938,0.637939 -1.594844,0.637939 -0.956907,0 -1.594844,-0.637939 -0.637938,-0.637937 -0.637938,-1.594844 0,-0.956906 0.637938,-1.594844 0.637937,-0.637937 1.594844,-0.637937 z"
       id="path864"
       style="fill:#000000;fill-opacity:1;stroke-width:0.0911338" />
    <path
       d="m 12.373385,27.978123 q 0.91134,0 1.594844,0.683505 0.683505,0.683505 0.683505,1.640412 0,0.956905 -0.683505,1.594844 -0.683504,0.637937 -1.594844,0.637937 -0.911339,0 -1.594844,-0.637937 -0.683505,-0.637939 -0.683505,-1.594844 0,-0.956907 0.683505,-1.640412 0.683505,-0.683505 1.594844,-0.683505 z"
       id="path860"
       style="fill:#000000;fill-opacity:1;stroke-width:0.0911338" />
    <path
       d="m 30.23564,22.60122 q 0.91134,0 1.594844,0.637938 0.683504,0.637938 0.683504,1.594844 0,0.956907 -0.683504,1.594844 -0.683504,0.637938 -1.594844,0.637938 -0.91134,0 -1.594844,-0.637938 -0.683504,-0.637937 -0.683504,-1.594844 0,-0.956906 0.683504,-1.594844 Q 29.3243,22.60122 30.23564,22.60122 Z"
       id="path856"
       style="fill:#000000;fill-opacity:1;stroke-width:0.0911338" />
    <path
       d="m 17.704721,20.140604 q 0.956907,0 1.594845,0.683504 0.637938,0.683505 0.637938,1.594844 0,0.91134 -0.637938,1.594844 -0.637938,0.683505 -1.594845,0.683505 -0.956906,0 -1.594844,-0.683505 -0.637937,-0.683504 -0.637937,-1.594844 0,-0.911339 0.637937,-1.594844 0.637938,-0.683504 1.594844,-0.683504 z"
       id="path852"
       style="fill:#000000;fill-opacity:1;stroke-width:0.0911338" />
    <path
       d="m 37.025119,15.128236 q 0.956907,0 1.594844,0.637938 0.637938,0.637937 0.637938,1.594844 0,0.956906 -0.637938,1.594844 -0.637937,0.637937 -1.594844,0.637937 -0.956907,0 -1.594844,-0.637937 -0.637937,-0.637938 -0.637937,-1.594844 0,-0.956907 0.637937,-1.594844 0.637937,-0.637938 1.594844,-0.637938 z"
       id="path848"
       style="fill:#000000;fill-opacity:1;stroke-width:0.0911338" />
    <path
       d="m 44.498103,9.2045291 q 0.956907,0 1.594844,0.6835043 0.637938,0.6835056 0.637938,1.5948446 0,0.911339 -0.637938,1.594844 -0.637937,0.683505 -1.594844,0.683505 -0.956906,0 -1.594844,-0.683505 -0.637937,-0.683505 -0.637937,-1.594844 0,-0.911339 0.637937,-1.5948446 0.637938,-0.6835043 1.594844,-0.6835043 z"
       id="path844"
       style="fill:#000000;fill-opacity:1;stroke-width:0.0911338" />
    <path
       d="m 46.147351,9.805455 c 0.443427,0.475101 0.665141,1.029385 0.665141,1.66285 0,0.633466 -0.221714,1.18775 -0.665141,1.66285 -0.443425,0.4751 -0.997709,0.71265 -1.662849,0.71265 -0.665139,0 -1.219423,-0.23755 -1.66285,-0.71265 z"
       id="path844-8"
       style="fill:#000000;fill-opacity:1;stroke-width:0.0950198"
       sodipodi:nodetypes="cssscc" />
  </g>
</svg>
